<svg width="125" height="85" viewBox="0 0 125 85" fill="none" xmlns="http://www.w3.org/2000/svg">
<rect x="98.7388" y="18.6399" width="22.4623" height="17.6056" rx="8.80281" transform="rotate(135 98.7388 18.6399)" fill="#41BCFF"/>
<rect x="54.5232" y="62.8555" width="22.4623" height="17.6056" rx="8.80281" transform="rotate(135 54.5232 62.8555)" fill="#41BCFF"/>
<path fill-rule="evenodd" clip-rule="evenodd" d="M69.3332 49.3333C68.9776 48.9776 68.401 48.9776 68.0454 49.3333L62.2501 55.1286C58.6939 58.6848 52.9281 58.6848 49.3719 55.1285L36.2669 42.0235C32.3616 38.1182 32.3616 31.7866 36.2669 27.8814L61.3916 2.75661C64.9479 -0.799646 70.7137 -0.799647 74.27 2.7566C77.8262 6.31286 77.8262 12.0787 74.27 15.6349L55.5964 34.3085C55.2407 34.6642 55.2407 35.2407 55.5963 35.5964C55.952 35.952 56.5286 35.952 56.8842 35.5964L62.6795 29.8011C66.2357 26.2449 72.0015 26.2449 75.5577 29.8011L82.8554 37.0989L88.6627 42.9061C92.5679 46.8114 92.568 53.143 88.6627 57.0483L82.8555 62.8555L63.5379 82.173C59.9817 85.7293 54.2159 85.7293 50.6596 82.173C47.1034 78.6168 47.1034 72.851 50.6596 69.2947L69.3332 50.6211C69.6889 50.2655 69.6889 49.6889 69.3332 49.3333Z" fill="#FFC80B"/>
<path fill-rule="evenodd" clip-rule="evenodd" d="M103.461 29.3719C99.9045 25.8156 94.1387 25.8156 90.5825 29.3719C87.0262 32.9281 87.0262 38.6939 90.5825 42.2502L92.097 43.7647C96.0022 47.6699 96.0022 54.0016 92.097 57.9068L90.5825 59.4213C87.0262 62.9776 87.0262 68.7434 90.5825 72.2996C94.1387 75.8559 99.9046 75.8559 103.461 72.2996L117.854 57.9068C121.759 54.0016 121.759 47.6699 117.854 43.7647L103.461 29.3719Z" fill="#E54671"/>
<path fill-rule="evenodd" clip-rule="evenodd" d="M21.4688 55.5578C25.025 59.1141 30.7908 59.1141 34.3471 55.5578C37.9033 52.0015 37.9033 46.2357 34.3471 42.6795L32.8326 41.165C28.9274 37.2598 28.9274 30.9281 32.8326 27.0229L34.3471 25.5084C37.9034 21.9521 37.9034 16.1863 34.3471 12.63C30.7909 9.07377 25.0251 9.07377 21.4688 12.63L12.8832 21.2156L7.07596 27.0229C3.17072 30.9281 3.17072 37.2598 7.07597 41.165L21.4688 55.5578Z" fill="#E54671"/>
</svg>
